<!DOCTYPE svg PUBLIC "-//W3C//DTD SVG 1.1//EN" "http://www.w3.org/Graphics/SVG/1.1/DTD/svg11.dtd">

<!-- Uploaded to: SVG Repo, www.svgrepo.com, Transformed by: SVG Repo Mixer Tools -->
<svg fill="#000000" width="800px" height="800px" viewBox="0 0 32 32" id="Outlined" xmlns="http://www.w3.org/2000/svg" stroke="#000000" stroke-width="0.064">

<g id="SVGRepo_bgCarrier" stroke-width="0"/>

<g id="SVGRepo_tracerCarrier" stroke-linecap="round" stroke-linejoin="round"/>

<g id="SVGRepo_iconCarrier"> <title/> <g id="Fill"> <path d="M24,17H8a5,5,0,0,0-5,5v7H5V22a3,3,0,0,1,3-3H24a3,3,0,0,1,3,3v7h2V22A5,5,0,0,0,24,17Z"/> <path d="M16,15a6,6,0,1,0-6-6A6,6,0,0,0,16,15ZM16,5a4,4,0,1,1-4,4A4,4,0,0,1,16,5Z"/> </g> </g>

</svg>